<svg xmlns="http://www.w3.org/2000/svg" width="220" height="130" viewBox="0 0 220 130" role="img" aria-label="Barcode BK005">
  <rect width="100%" height="100%" fill="#ffffff" />
  <g fill="#000000">
    <rect x="20" y="12" width="4" height="82" /><rect x="26" y="12" width="2" height="82" /><rect x="32" y="12" width="2" height="82" /><rect x="42" y="12" width="2" height="82" /><rect x="50" y="12" width="2" height="82" /><rect x="54" y="12" width="4" height="82" /><rect x="64" y="12" width="2" height="82" /><rect x="68" y="12" width="4" height="82" /><rect x="78" y="12" width="6" height="82" /><rect x="86" y="12" width="2" height="82" /><rect x="92" y="12" width="6" height="82" /><rect x="100" y="12" width="4" height="82" /><rect x="108" y="12" width="2" height="82" /><rect x="114" y="12" width="6" height="82" /><rect x="122" y="12" width="4" height="82" /><rect x="130" y="12" width="4" height="82" /><rect x="136" y="12" width="6" height="82" /><rect x="146" y="12" width="2" height="82" /><rect x="152" y="12" width="6" height="82" /><rect x="162" y="12" width="4" height="82" /><rect x="170" y="12" width="2" height="82" /><rect x="174" y="12" width="4" height="82" /><rect x="184" y="12" width="6" height="82" /><rect x="192" y="12" width="2" height="82" /><rect x="196" y="12" width="4" height="82" />
  </g>
  <text x="110.0" y="112" text-anchor="middle" font-family="Arial, sans-serif" font-size="18" font-weight="700">BK005</text>
  <text x="110.0" y="128" text-anchor="middle" font-family="Arial, sans-serif" font-size="12">Sejarah Indonesia</text>
</svg>
